{"title":"Fast.and.Furious.TS.XviD-nsiervi","uid":4832259,"size":837037660,"categoryP":"video","categoryS":"movies","magnet":"?xt=urn:btih:f5bcffcd623fad771a9e6a0e4fd84ed4830bd971&amp;dn=Fast.and.Furious.TS.XviD-nsiervi&amp;tr=udp%3A%2F%2Ftracker.openbittorrent.com%3A80&amp;tr=udp%3A%2F%2Fopen.demonii.com%3A1337&amp;tr=udp%3A%2F%2Ftracker.coppersurfer.tk%3A6969&amp;tr=udp%3A%2F%2Fexodus.desync.com%3A6969","seeders":1,"leechers":0,"uploader":"nsiervi","files":6,"time":1239183616,"description":"[b]Fast.and.Furious - 4[/b]\n\n\nImdb link: http://www.imdb.com/title/tt1013752/\nOverview - User Rating: 7.3/10  \n\n[b]PLEASE READ NOTES BELOW:\n\n- orginal folder -  \n Fast And Furious 4 TS XVID - STG\n\n [/b] \n\n \nScreens:\n[img]http://img19.imageshack.us/img19/4937/ff4ts1.png[/img]\n[img]http://img21.imageshack.us/img21/2564/ff4ts2.png[/img]\n[img]http://img24.imageshack.us/img24/7963/ff4ts3.png[/img]\n[img]http://img25.imageshack.us/img25/4919/ff4ts4.png[/img]\n\nFile info:\nGeneral\nComplete name                    : E:Fast.and.Furious.TS.XviD-nsierviFast.and.Furious.TS.XviD-nsiervi.avi\nFormat                           : AVI\nFormat/Info                      : Audio Video Interleave\nFile size                        : 798 MiB\nDuration                         : 1h 39mn\nOverall bit rate                 : 1 121 Kbps\nWriting application              : VirtualDubMod 1.5.10.2 (build 2540/release)\nWriting library                  : VirtualDubMod build 2540/release\n\nVideo\nFormat                           : MPEG-4 Visual\nFormat profile                   : Streaming Video@L1\nFormat settings, BVOP            : Yes\nFormat settings, QPel            : No\nFormat settings, GMC             : No warppoints\nFormat settings, Matrix          : Default\nCodec ID                         : XVID\nCodec ID/Hint                    : XviD\nDuration                         : 1h 39mn\nBit rate                         : 983 Kbps\nWidth                            : 640 pixels\nHeight                           : 272 pixels\nDisplay aspect ratio             : 2.35\nFrame rate                       : 25.000 fps\nResolution                       : 24 bits\nColorimetry                      : 4:2:0\nScan type                        : Progressive\nBits/(Pixel*Frame)               : 0.226\nStream size                      : 700 MiB (88%)\nWriting library                  : XviD 1.1.2 (UTC 2006-11-01)\n\nAudio\nFormat                           : MPEG Audio\nFormat version                   : Version 1\nFormat profile                   : Layer 3\nCodec ID                         : 55\nCodec ID/Hint                    : MP3\nDuration                         : 1h 39mn\nBit rate mode                    : Constant\nBit rate                         : 128 Kbps\nChannel(s)                       : 2 channels\nSampling rate                    : 48.0 KHz\nResolution                       : 16 bits\nStream size                      : 91.1 MiB (11%)\nAlignment                        : Aligned on interleaves\nInterleave, duration             : 40 ms (1.00 video frame)\nInterleave, preload duration     : 504 ms\n\nThx From Brazil ","torrent":{"xt":"urn:btih:f5bcffcd623fad771a9e6a0e4fd84ed4830bd971","amp;dn":"Fast.and.Furious.TS.XviD-nsiervi","amp;tr":["udp%3A%2F%2Ftracker.openbittorrent.com%3A80","udp%3A%2F%2Fopen.demonii.com%3A1337","udp%3A%2F%2Ftracker.coppersurfer.tk%3A6969","udp%3A%2F%2Fexodus.desync.com%3A6969"],"infoHash":"f5bcffcd623fad771a9e6a0e4fd84ed4830bd971","infoHashBuffer":{"type":"Buffer","data":[245,188,255,205,98,63,173,119,26,158,106,14,79,216,78,212,131,11,217,113]},"announce":[],"urlList":[]}}